<svg width="256" height="144" viewBox="0 0 256 144" fill="none" xmlns="http://www.w3.org/2000/svg">
<rect x="97.821" y="41.821" width="60.358" height="60.358" rx="30.179" stroke="#14DADA" stroke-width="5"/>
<rect x="120.675" y="35.375" width="14.65" height="5.274" rx="2.637" fill="#14DADA"/>
<rect x="149.016" y="42.407" width="14.65" height="5.274" rx="2.637" transform="rotate(45 149.016 42.407)" fill="#14DADA"/>
<rect x="100.964" y="89.2871" width="14.65" height="5.274" rx="2.637" transform="rotate(45 100.964 89.2871)" fill="#14DADA"/>
<rect x="96.063" y="52.7661" width="14.65" height="5.274" rx="2.637" transform="rotate(-45 96.063 52.7661)" fill="#14DADA"/>
<rect x="145.287" y="98.4741" width="14.65" height="5.274" rx="2.637" transform="rotate(-45 145.287 98.4741)" fill="#14DADA"/>
<rect x="159.351" y="79.325" width="14.65" height="5.274" rx="2.637" transform="rotate(-90 159.351 79.325)" fill="#14DADA"/>
<rect x="91.375" y="79.325" width="14.65" height="5.274" rx="2.637" transform="rotate(-90 91.375 79.325)" fill="#14DADA"/>
<rect x="120.675" y="103.351" width="14.65" height="5.274" rx="2.637" fill="#14DADA"/>
</svg>
